%TF.GenerationSoftware,KiCad,Pcbnew,7.0.10*%
%TF.CreationDate,2024-05-07T16:57:11-04:00*%
%TF.ProjectId,Proj 1 - LED torch,50726f6a-2031-4202-9d20-4c454420746f,0.1*%
%TF.SameCoordinates,Original*%
%TF.FileFunction,Copper,L1,Top*%
%TF.FilePolarity,Positive*%
%FSLAX46Y46*%
G04 Gerber Fmt 4.6, Leading zero omitted, Abs format (unit mm)*
G04 Created by KiCad (PCBNEW 7.0.10) date 2024-05-07 16:57:11*
%MOMM*%
%LPD*%
G01*
G04 APERTURE LIST*
%TA.AperFunction,SMDPad,CuDef*%
%ADD10R,2.540000X3.510000*%
%TD*%
%TA.AperFunction,ComponentPad*%
%ADD11C,1.400000*%
%TD*%
%TA.AperFunction,ComponentPad*%
%ADD12O,1.400000X1.400000*%
%TD*%
%TA.AperFunction,ComponentPad*%
%ADD13R,1.800000X1.800000*%
%TD*%
%TA.AperFunction,ComponentPad*%
%ADD14C,1.800000*%
%TD*%
%TA.AperFunction,ComponentPad*%
%ADD15R,1.700000X1.700000*%
%TD*%
%TA.AperFunction,ComponentPad*%
%ADD16C,1.700000*%
%TD*%
%TA.AperFunction,Conductor*%
%ADD17C,0.250000*%
%TD*%
G04 APERTURE END LIST*
D10*
%TO.P,BT1,1,+*%
%TO.N,/bat_pos*%
X149150000Y-114300000D03*
%TO.P,BT1,2,-*%
%TO.N,/LED_cathode*%
X178510000Y-114300000D03*
%TD*%
D11*
%TO.P,R1,1*%
%TO.N,/LED_anode*%
X123698000Y-118110000D03*
D12*
%TO.P,R1,2*%
%TO.N,Net-(SW1A-A)*%
X123698000Y-110490000D03*
%TD*%
D13*
%TO.P,D1,1,K*%
%TO.N,/LED_cathode*%
X117856000Y-113030000D03*
D14*
%TO.P,D1,2,A*%
%TO.N,/LED_anode*%
X117856000Y-115570000D03*
%TD*%
D15*
%TO.P,SW1,1,A*%
%TO.N,Net-(SW1A-A)*%
X130100000Y-111542000D03*
D16*
X136600000Y-111542000D03*
%TO.P,SW1,2,B*%
%TO.N,/bat_pos*%
X130100000Y-116042000D03*
X136600000Y-116042000D03*
%TD*%
D17*
%TO.N,/LED_cathode*%
X117856000Y-113030000D02*
X122428000Y-108458000D01*
X160020000Y-108458000D02*
X165862000Y-114300000D01*
X122428000Y-108458000D02*
X160020000Y-108458000D01*
X165862000Y-114300000D02*
X178510000Y-114300000D01*
%TO.N,Net-(SW1A-A)*%
X130100000Y-111542000D02*
X136600000Y-111542000D01*
%TO.N,/bat_pos*%
X130100000Y-116042000D02*
X136600000Y-116042000D01*
X139700000Y-116840000D02*
X144780000Y-116840000D01*
X136600000Y-116042000D02*
X138902000Y-116042000D01*
X138902000Y-116042000D02*
X139700000Y-116840000D01*
X144780000Y-116840000D02*
X147320000Y-114300000D01*
X147320000Y-114300000D02*
X149150000Y-114300000D01*
%TO.N,/LED_anode*%
X117856000Y-115570000D02*
X120396000Y-118110000D01*
X120396000Y-118110000D02*
X123698000Y-118110000D01*
%TO.N,Net-(SW1A-A)*%
X123698000Y-110490000D02*
X129048000Y-110490000D01*
X129048000Y-110490000D02*
X130100000Y-111542000D01*
%TD*%
M02*
