%TF.GenerationSoftware,KiCad,Pcbnew,7.0.10*%
%TF.CreationDate,2024-05-07T16:57:11-04:00*%
%TF.ProjectId,Proj 1 - LED torch,50726f6a-2031-4202-9d20-4c454420746f,0.1*%
%TF.SameCoordinates,Original*%
%TF.FileFunction,Legend,Top*%
%TF.FilePolarity,Positive*%
%FSLAX46Y46*%
G04 Gerber Fmt 4.6, Leading zero omitted, Abs format (unit mm)*
G04 Created by KiCad (PCBNEW 7.0.10) date 2024-05-07 16:57:11*
%MOMM*%
%LPD*%
G01*
G04 APERTURE LIST*
%ADD10C,0.150000*%
%ADD11C,0.120000*%
G04 APERTURE END LIST*
D10*
X117430779Y-110740866D02*
X118192684Y-110740866D01*
X117430779Y-118106866D02*
X118192684Y-118106866D01*
X117811731Y-118487819D02*
X117811731Y-117725914D01*
X163044285Y-121851009D02*
X163187142Y-121898628D01*
X163187142Y-121898628D02*
X163234761Y-121946247D01*
X163234761Y-121946247D02*
X163282380Y-122041485D01*
X163282380Y-122041485D02*
X163282380Y-122184342D01*
X163282380Y-122184342D02*
X163234761Y-122279580D01*
X163234761Y-122279580D02*
X163187142Y-122327200D01*
X163187142Y-122327200D02*
X163091904Y-122374819D01*
X163091904Y-122374819D02*
X162710952Y-122374819D01*
X162710952Y-122374819D02*
X162710952Y-121374819D01*
X162710952Y-121374819D02*
X163044285Y-121374819D01*
X163044285Y-121374819D02*
X163139523Y-121422438D01*
X163139523Y-121422438D02*
X163187142Y-121470057D01*
X163187142Y-121470057D02*
X163234761Y-121565295D01*
X163234761Y-121565295D02*
X163234761Y-121660533D01*
X163234761Y-121660533D02*
X163187142Y-121755771D01*
X163187142Y-121755771D02*
X163139523Y-121803390D01*
X163139523Y-121803390D02*
X163044285Y-121851009D01*
X163044285Y-121851009D02*
X162710952Y-121851009D01*
X163568095Y-121374819D02*
X164139523Y-121374819D01*
X163853809Y-122374819D02*
X163853809Y-121374819D01*
X164996666Y-122374819D02*
X164425238Y-122374819D01*
X164710952Y-122374819D02*
X164710952Y-121374819D01*
X164710952Y-121374819D02*
X164615714Y-121517676D01*
X164615714Y-121517676D02*
X164520476Y-121612914D01*
X164520476Y-121612914D02*
X164425238Y-121660533D01*
X161758570Y-104833009D02*
X161901427Y-104880628D01*
X161901427Y-104880628D02*
X161949046Y-104928247D01*
X161949046Y-104928247D02*
X161996665Y-105023485D01*
X161996665Y-105023485D02*
X161996665Y-105166342D01*
X161996665Y-105166342D02*
X161949046Y-105261580D01*
X161949046Y-105261580D02*
X161901427Y-105309200D01*
X161901427Y-105309200D02*
X161806189Y-105356819D01*
X161806189Y-105356819D02*
X161425237Y-105356819D01*
X161425237Y-105356819D02*
X161425237Y-104356819D01*
X161425237Y-104356819D02*
X161758570Y-104356819D01*
X161758570Y-104356819D02*
X161853808Y-104404438D01*
X161853808Y-104404438D02*
X161901427Y-104452057D01*
X161901427Y-104452057D02*
X161949046Y-104547295D01*
X161949046Y-104547295D02*
X161949046Y-104642533D01*
X161949046Y-104642533D02*
X161901427Y-104737771D01*
X161901427Y-104737771D02*
X161853808Y-104785390D01*
X161853808Y-104785390D02*
X161758570Y-104833009D01*
X161758570Y-104833009D02*
X161425237Y-104833009D01*
X162853808Y-105356819D02*
X162853808Y-104833009D01*
X162853808Y-104833009D02*
X162806189Y-104737771D01*
X162806189Y-104737771D02*
X162710951Y-104690152D01*
X162710951Y-104690152D02*
X162520475Y-104690152D01*
X162520475Y-104690152D02*
X162425237Y-104737771D01*
X162853808Y-105309200D02*
X162758570Y-105356819D01*
X162758570Y-105356819D02*
X162520475Y-105356819D01*
X162520475Y-105356819D02*
X162425237Y-105309200D01*
X162425237Y-105309200D02*
X162377618Y-105213961D01*
X162377618Y-105213961D02*
X162377618Y-105118723D01*
X162377618Y-105118723D02*
X162425237Y-105023485D01*
X162425237Y-105023485D02*
X162520475Y-104975866D01*
X162520475Y-104975866D02*
X162758570Y-104975866D01*
X162758570Y-104975866D02*
X162853808Y-104928247D01*
X163187142Y-104690152D02*
X163568094Y-104690152D01*
X163329999Y-104356819D02*
X163329999Y-105213961D01*
X163329999Y-105213961D02*
X163377618Y-105309200D01*
X163377618Y-105309200D02*
X163472856Y-105356819D01*
X163472856Y-105356819D02*
X163568094Y-105356819D01*
X163758571Y-104690152D02*
X164139523Y-104690152D01*
X163901428Y-104356819D02*
X163901428Y-105213961D01*
X163901428Y-105213961D02*
X163949047Y-105309200D01*
X163949047Y-105309200D02*
X164044285Y-105356819D01*
X164044285Y-105356819D02*
X164139523Y-105356819D01*
X164853809Y-105309200D02*
X164758571Y-105356819D01*
X164758571Y-105356819D02*
X164568095Y-105356819D01*
X164568095Y-105356819D02*
X164472857Y-105309200D01*
X164472857Y-105309200D02*
X164425238Y-105213961D01*
X164425238Y-105213961D02*
X164425238Y-104833009D01*
X164425238Y-104833009D02*
X164472857Y-104737771D01*
X164472857Y-104737771D02*
X164568095Y-104690152D01*
X164568095Y-104690152D02*
X164758571Y-104690152D01*
X164758571Y-104690152D02*
X164853809Y-104737771D01*
X164853809Y-104737771D02*
X164901428Y-104833009D01*
X164901428Y-104833009D02*
X164901428Y-104928247D01*
X164901428Y-104928247D02*
X164425238Y-105023485D01*
X165330000Y-105356819D02*
X165330000Y-104690152D01*
X165330000Y-104880628D02*
X165377619Y-104785390D01*
X165377619Y-104785390D02*
X165425238Y-104737771D01*
X165425238Y-104737771D02*
X165520476Y-104690152D01*
X165520476Y-104690152D02*
X165615714Y-104690152D01*
X165853810Y-104690152D02*
X166091905Y-105356819D01*
X166330000Y-104690152D02*
X166091905Y-105356819D01*
X166091905Y-105356819D02*
X165996667Y-105594914D01*
X165996667Y-105594914D02*
X165949048Y-105642533D01*
X165949048Y-105642533D02*
X165853810Y-105690152D01*
X122374819Y-115736666D02*
X121898628Y-116069999D01*
X122374819Y-116308094D02*
X121374819Y-116308094D01*
X121374819Y-116308094D02*
X121374819Y-115927142D01*
X121374819Y-115927142D02*
X121422438Y-115831904D01*
X121422438Y-115831904D02*
X121470057Y-115784285D01*
X121470057Y-115784285D02*
X121565295Y-115736666D01*
X121565295Y-115736666D02*
X121708152Y-115736666D01*
X121708152Y-115736666D02*
X121803390Y-115784285D01*
X121803390Y-115784285D02*
X121851009Y-115831904D01*
X121851009Y-115831904D02*
X121898628Y-115927142D01*
X121898628Y-115927142D02*
X121898628Y-116308094D01*
X122374819Y-114784285D02*
X122374819Y-115355713D01*
X122374819Y-115069999D02*
X121374819Y-115069999D01*
X121374819Y-115069999D02*
X121517676Y-115165237D01*
X121517676Y-115165237D02*
X121612914Y-115260475D01*
X121612914Y-115260475D02*
X121660533Y-115355713D01*
X122374819Y-112498094D02*
X121374819Y-112498094D01*
X121374819Y-112498094D02*
X121374819Y-112259999D01*
X121374819Y-112259999D02*
X121422438Y-112117142D01*
X121422438Y-112117142D02*
X121517676Y-112021904D01*
X121517676Y-112021904D02*
X121612914Y-111974285D01*
X121612914Y-111974285D02*
X121803390Y-111926666D01*
X121803390Y-111926666D02*
X121946247Y-111926666D01*
X121946247Y-111926666D02*
X122136723Y-111974285D01*
X122136723Y-111974285D02*
X122231961Y-112021904D01*
X122231961Y-112021904D02*
X122327200Y-112117142D01*
X122327200Y-112117142D02*
X122374819Y-112259999D01*
X122374819Y-112259999D02*
X122374819Y-112498094D01*
X122374819Y-110974285D02*
X122374819Y-111545713D01*
X122374819Y-111259999D02*
X121374819Y-111259999D01*
X121374819Y-111259999D02*
X121517676Y-111355237D01*
X121517676Y-111355237D02*
X121612914Y-111450475D01*
X121612914Y-111450475D02*
X121660533Y-111545713D01*
X114350819Y-114942857D02*
X114350819Y-115419047D01*
X114350819Y-115419047D02*
X113350819Y-115419047D01*
X113827009Y-114609523D02*
X113827009Y-114276190D01*
X114350819Y-114133333D02*
X114350819Y-114609523D01*
X114350819Y-114609523D02*
X113350819Y-114609523D01*
X113350819Y-114609523D02*
X113350819Y-114133333D01*
X114350819Y-113704761D02*
X113350819Y-113704761D01*
X113350819Y-113704761D02*
X113350819Y-113466666D01*
X113350819Y-113466666D02*
X113398438Y-113323809D01*
X113398438Y-113323809D02*
X113493676Y-113228571D01*
X113493676Y-113228571D02*
X113588914Y-113180952D01*
X113588914Y-113180952D02*
X113779390Y-113133333D01*
X113779390Y-113133333D02*
X113922247Y-113133333D01*
X113922247Y-113133333D02*
X114112723Y-113180952D01*
X114112723Y-113180952D02*
X114207961Y-113228571D01*
X114207961Y-113228571D02*
X114303200Y-113323809D01*
X114303200Y-113323809D02*
X114350819Y-113466666D01*
X114350819Y-113466666D02*
X114350819Y-113704761D01*
X132016667Y-109899200D02*
X132159524Y-109946819D01*
X132159524Y-109946819D02*
X132397619Y-109946819D01*
X132397619Y-109946819D02*
X132492857Y-109899200D01*
X132492857Y-109899200D02*
X132540476Y-109851580D01*
X132540476Y-109851580D02*
X132588095Y-109756342D01*
X132588095Y-109756342D02*
X132588095Y-109661104D01*
X132588095Y-109661104D02*
X132540476Y-109565866D01*
X132540476Y-109565866D02*
X132492857Y-109518247D01*
X132492857Y-109518247D02*
X132397619Y-109470628D01*
X132397619Y-109470628D02*
X132207143Y-109423009D01*
X132207143Y-109423009D02*
X132111905Y-109375390D01*
X132111905Y-109375390D02*
X132064286Y-109327771D01*
X132064286Y-109327771D02*
X132016667Y-109232533D01*
X132016667Y-109232533D02*
X132016667Y-109137295D01*
X132016667Y-109137295D02*
X132064286Y-109042057D01*
X132064286Y-109042057D02*
X132111905Y-108994438D01*
X132111905Y-108994438D02*
X132207143Y-108946819D01*
X132207143Y-108946819D02*
X132445238Y-108946819D01*
X132445238Y-108946819D02*
X132588095Y-108994438D01*
X132921429Y-108946819D02*
X133159524Y-109946819D01*
X133159524Y-109946819D02*
X133350000Y-109232533D01*
X133350000Y-109232533D02*
X133540476Y-109946819D01*
X133540476Y-109946819D02*
X133778572Y-108946819D01*
X134683333Y-109946819D02*
X134111905Y-109946819D01*
X134397619Y-109946819D02*
X134397619Y-108946819D01*
X134397619Y-108946819D02*
X134302381Y-109089676D01*
X134302381Y-109089676D02*
X134207143Y-109184914D01*
X134207143Y-109184914D02*
X134111905Y-109232533D01*
D11*
%TO.C,BT1*%
X149520000Y-110690000D02*
X153138000Y-110690000D01*
X149520000Y-112400000D02*
X149520000Y-110690000D01*
X149520000Y-116200000D02*
X149520000Y-117910000D01*
X153138000Y-117910000D02*
X149520000Y-117910000D01*
X155982700Y-106190000D02*
X171677300Y-106190000D01*
X159970000Y-122410000D02*
X155982700Y-122410000D01*
X162170000Y-120210000D02*
X159970000Y-122410000D01*
X165490000Y-120210000D02*
X162170000Y-120210000D01*
X165490000Y-120210000D02*
X167690000Y-122410000D01*
X171677300Y-122410000D02*
X167690000Y-122410000D01*
X174522000Y-110690000D02*
X178140000Y-110690000D01*
X178140000Y-112400000D02*
X178140000Y-110690000D01*
X178140000Y-116200000D02*
X178140000Y-117910000D01*
X178140000Y-117910000D02*
X174522000Y-117910000D01*
X155984629Y-106188211D02*
G75*
G03*
X153138001Y-110690000I7845391J-8111799D01*
G01*
X153138000Y-117910000D02*
G75*
G03*
X155984629Y-122411789I10691995J3609996D01*
G01*
X174522000Y-110690000D02*
G75*
G03*
X171675371Y-106188211I-10692000J-3610000D01*
G01*
X171675371Y-122411789D02*
G75*
G03*
X174522000Y-117910000I-7845391J8111801D01*
G01*
%TO.C,R1*%
X123698000Y-117170000D02*
X123698000Y-116220000D01*
X122778000Y-116220000D02*
X124618000Y-116220000D01*
X124618000Y-116220000D02*
X124618000Y-112380000D01*
X122778000Y-112380000D02*
X122778000Y-116220000D01*
X124618000Y-112380000D02*
X122778000Y-112380000D01*
X123698000Y-111430000D02*
X123698000Y-112380000D01*
%TO.C,D1*%
X119401000Y-111740000D02*
X116311000Y-111740000D01*
X117855538Y-117289999D02*
G75*
G03*
X119400830Y-111740001I462J2989999D01*
G01*
X116311170Y-111740000D02*
G75*
G03*
X117856462Y-117290000I1544830J-2560000D01*
G01*
X120356000Y-114300000D02*
G75*
G03*
X115356000Y-114300000I-2500000J0D01*
G01*
X115356000Y-114300000D02*
G75*
G03*
X120356000Y-114300000I2500000J0D01*
G01*
%TO.C,SW1*%
X130230000Y-114942000D02*
X130230000Y-112742000D01*
X130700000Y-116912000D02*
X135900000Y-116912000D01*
X131300000Y-110672000D02*
X135700000Y-110672000D01*
X136470000Y-112742000D02*
X136470000Y-114942000D01*
X134764214Y-113792000D02*
G75*
G03*
X131935786Y-113792000I-1414214J0D01*
G01*
X131935786Y-113792000D02*
G75*
G03*
X134764214Y-113792000I1414214J0D01*
G01*
%TD*%
M02*
